<svg xmlns="http://www.w3.org/2000/svg" viewBox="0 0 1500 960" width="1500" height="960" fill="none" aria-hidden="true">
<!-- Sparse, irregular subpixel/pixel stars; snapped to a virtual four-pixel grid. -->
<rect x="796" y="624" width="2" height="2" fill="#d1baa2" opacity="0.28"/>
<rect x="688" y="540" width="2" height="2" fill="#d1baa2" opacity="0.14"/>
<rect x="236" y="948" width="2" height="2" fill="#e8d8c7" opacity="0.44"/>
<rect x="668" y="940" width="2" height="2" fill="#acb9b4" opacity="0.34"/>
<rect x="1228" y="8" width="2" height="2" fill="#acb9b4" opacity="0.32"/>
<rect x="192" y="556" width="2" height="2" fill="#9b7168" opacity="0.41"/>
<rect x="1364" y="904" width="2" height="2" fill="#bd7162" opacity="0.17"/>
<rect x="500" y="400" width="2" height="2" fill="#e8d8c7" opacity="0.28"/>
<rect x="880" y="112" width="2" height="2" fill="#bd7162" opacity="0.44"/>
<rect x="976" y="688" width="2" height="2" fill="#acb9b4" opacity="0.41"/>
<rect x="1064" y="772" width="2" height="2" fill="#acb9b4" opacity="0.31"/>
<rect x="1072" y="948" width="2" height="2" fill="#acb9b4" opacity="0.16"/>
<rect x="940" y="328" width="2" height="2" fill="#d1baa2" opacity="0.33"/>
<rect x="1192" y="780" width="3" height="3" fill="#e8d8c7" opacity="0.37"/>
<rect x="644" y="316" width="2" height="2" fill="#e8d8c7" opacity="0.28"/>
<rect x="524" y="484" width="2" height="2" fill="#e8d8c7" opacity="0.25"/>
<rect x="1420" y="204" width="2" height="2" fill="#bd7162" opacity="0.14"/>
<rect x="1024" y="560" width="2" height="2" fill="#e8d8c7" opacity="0.33"/>
<rect x="924" y="384" width="2" height="2" fill="#d1baa2" opacity="0.14"/>
<rect x="1052" y="832" width="2" height="2" fill="#acb9b4" opacity="0.25"/>
<rect x="868" y="588" width="2" height="2" fill="#9b7168" opacity="0.45"/>
<rect x="1128" y="364" width="2" height="2" fill="#bd7162" opacity="0.41"/>
<rect x="272" y="664" width="2" height="2" fill="#e8d8c7" opacity="0.32"/>
<rect x="1032" y="852" width="2" height="2" fill="#bd7162" opacity="0.24"/>
<rect x="1260" y="76" width="3" height="3" fill="#e8d8c7" opacity="0.47"/>
<rect x="416" y="716" width="2" height="2" fill="#e8d8c7" opacity="0.25"/>
<rect x="348" y="228" width="3" height="3" fill="#bd7162" opacity="0.38"/>
<rect x="1332" y="244" width="2" height="2" fill="#9b7168" opacity="0.14"/>
<rect x="1208" y="512" width="2" height="2" fill="#9b7168" opacity="0.15"/>
<rect x="1488" y="672" width="2" height="2" fill="#9b7168" opacity="0.38"/>
<rect x="264" y="800" width="3" height="3" fill="#acb9b4" opacity="0.24"/>
<rect x="900" y="336" width="2" height="2" fill="#bd7162" opacity="0.45"/>
<rect x="224" y="912" width="2" height="2" fill="#e8d8c7" opacity="0.24"/>
<rect x="292" y="568" width="2" height="2" fill="#acb9b4" opacity="0.33"/>
<rect x="572" y="256" width="3" height="3" fill="#d1baa2" opacity="0.19"/>
<rect x="532" y="320" width="2" height="2" fill="#acb9b4" opacity="0.22"/>
<rect x="1272" y="856" width="2" height="2" fill="#bd7162" opacity="0.26"/>
<rect x="832" y="848" width="2" height="2" fill="#9b7168" opacity="0.27"/>
<rect x="76" y="248" width="2" height="2" fill="#e8d8c7" opacity="0.46"/>
<rect x="1364" y="580" width="2" height="2" fill="#acb9b4" opacity="0.37"/>
<rect x="568" y="256" width="2" height="2" fill="#bd7162" opacity="0.30"/>
<rect x="1488" y="724" width="2" height="2" fill="#e8d8c7" opacity="0.26"/>
<rect x="1168" y="124" width="2" height="2" fill="#acb9b4" opacity="0.30"/>
<rect x="1156" y="232" width="2" height="2" fill="#9b7168" opacity="0.13"/>
<rect x="1072" y="896" width="2" height="2" fill="#d1baa2" opacity="0.26"/>
<rect x="544" y="600" width="2" height="2" fill="#bd7162" opacity="0.28"/>
<rect x="1256" y="316" width="2" height="2" fill="#bd7162" opacity="0.43"/>
<rect x="372" y="12" width="2" height="2" fill="#d1baa2" opacity="0.21"/>
<rect x="1288" y="868" width="2" height="2" fill="#e8d8c7" opacity="0.34"/>
<rect x="1348" y="520" width="2" height="2" fill="#acb9b4" opacity="0.46"/>
<rect x="1392" y="392" width="3" height="3" fill="#bd7162" opacity="0.43"/>
<rect x="1312" y="632" width="4" height="4" fill="#d1baa2" opacity="0.21"/>
<rect x="500" y="640" width="2" height="2" fill="#acb9b4" opacity="0.42"/>
<rect x="876" y="844" width="2" height="2" fill="#d1baa2" opacity="0.19"/>
<rect x="1180" y="320" width="2" height="2" fill="#bd7162" opacity="0.33"/>
<rect x="720" y="620" width="2" height="2" fill="#d1baa2" opacity="0.40"/>
<rect x="96" y="712" width="2" height="2" fill="#bd7162" opacity="0.41"/>
<rect x="1100" y="588" width="2" height="2" fill="#d1baa2" opacity="0.37"/>
<rect x="8" y="244" width="2" height="2" fill="#acb9b4" opacity="0.39"/>
<rect x="232" y="308" width="2" height="2" fill="#d1baa2" opacity="0.42"/>
<rect x="480" y="88" width="2" height="2" fill="#e8d8c7" opacity="0.40"/>
<rect x="536" y="400" width="2" height="2" fill="#bd7162" opacity="0.38"/>
<rect x="1008" y="584" width="2" height="2" fill="#acb9b4" opacity="0.33"/>
<rect x="112" y="284" width="2" height="2" fill="#acb9b4" opacity="0.34"/>
<rect x="1280" y="132" width="3" height="3" fill="#acb9b4" opacity="0.25"/>
<rect x="604" y="720" width="2" height="2" fill="#9b7168" opacity="0.21"/>
<rect x="176" y="120" width="2" height="2" fill="#acb9b4" opacity="0.17"/>
<rect x="1352" y="180" width="2" height="2" fill="#e8d8c7" opacity="0.29"/>
<rect x="748" y="660" width="2" height="2" fill="#d1baa2" opacity="0.33"/>
<rect x="1144" y="528" width="3" height="3" fill="#bd7162" opacity="0.21"/>
<rect x="1084" y="776" width="2" height="2" fill="#bd7162" opacity="0.22"/>
<rect x="1468" y="180" width="2" height="2" fill="#bd7162" opacity="0.28"/>
<rect x="1016" y="788" width="2" height="2" fill="#9b7168" opacity="0.45"/>
<rect x="892" y="756" width="2" height="2" fill="#acb9b4" opacity="0.23"/>
<rect x="652" y="744" width="2" height="2" fill="#bd7162" opacity="0.26"/>
<rect x="872" y="460" width="2" height="2" fill="#9b7168" opacity="0.22"/>
<rect x="132" y="632" width="2" height="2" fill="#e8d8c7" opacity="0.34"/>
<rect x="888" y="344" width="3" height="3" fill="#9b7168" opacity="0.14"/>
<rect x="336" y="16" width="2" height="2" fill="#d1baa2" opacity="0.45"/>
<rect x="576" y="100" width="2" height="2" fill="#d1baa2" opacity="0.25"/>
<rect x="268" y="344" width="2" height="2" fill="#e8d8c7" opacity="0.17"/>
<rect x="1212" y="80" width="3" height="3" fill="#bd7162" opacity="0.40"/>
<rect x="972" y="228" width="2" height="2" fill="#9b7168" opacity="0.46"/>
<rect x="1056" y="8" width="2" height="2" fill="#bd7162" opacity="0.17"/>
<rect x="672" y="948" width="2" height="2" fill="#d1baa2" opacity="0.44"/>
<rect x="1464" y="248" width="2" height="2" fill="#9b7168" opacity="0.13"/>
<rect x="212" y="268" width="2" height="2" fill="#e8d8c7" opacity="0.26"/>
<rect x="220" y="256" width="3" height="3" fill="#e8d8c7" opacity="0.26"/>
<rect x="340" y="368" width="2" height="2" fill="#d1baa2" opacity="0.29"/>
<rect x="144" y="200" width="2" height="2" fill="#e8d8c7" opacity="0.38"/>
<rect x="800" y="888" width="3" height="3" fill="#d1baa2" opacity="0.42"/>
<rect x="380" y="256" width="2" height="2" fill="#d1baa2" opacity="0.39"/>
<rect x="1404" y="316" width="2" height="2" fill="#acb9b4" opacity="0.26"/>
<rect x="904" y="348" width="3" height="3" fill="#bd7162" opacity="0.31"/>
<rect x="704" y="780" width="2" height="2" fill="#9b7168" opacity="0.39"/>
<rect x="992" y="900" width="2" height="2" fill="#bd7162" opacity="0.45"/>
<rect x="608" y="196" width="3" height="3" fill="#bd7162" opacity="0.23"/>
<rect x="712" y="596" width="2" height="2" fill="#acb9b4" opacity="0.17"/>
<rect x="788" y="220" width="2" height="2" fill="#d1baa2" opacity="0.45"/>
<rect x="168" y="436" width="2" height="2" fill="#acb9b4" opacity="0.14"/>
<rect x="1488" y="144" width="3" height="3" fill="#9b7168" opacity="0.25"/>
<rect x="1316" y="200" width="2" height="2" fill="#acb9b4" opacity="0.30"/>
<rect x="8" y="580" width="3" height="3" fill="#bd7162" opacity="0.22"/>
<rect x="1184" y="780" width="2" height="2" fill="#9b7168" opacity="0.33"/>
<rect x="656" y="92" width="2" height="2" fill="#d1baa2" opacity="0.20"/>
<rect x="1224" y="416" width="2" height="2" fill="#acb9b4" opacity="0.15"/>
<rect x="1236" y="8" width="2" height="2" fill="#bd7162" opacity="0.14"/>
<rect x="632" y="84" width="2" height="2" fill="#d1baa2" opacity="0.17"/>
<rect x="252" y="464" width="3" height="3" fill="#d1baa2" opacity="0.40"/>
<rect x="260" y="424" width="2" height="2" fill="#9b7168" opacity="0.31"/>
<rect x="1160" y="684" width="2" height="2" fill="#e8d8c7" opacity="0.29"/>
<rect x="756" y="792" width="3" height="3" fill="#e8d8c7" opacity="0.27"/>
<rect x="1132" y="840" width="2" height="2" fill="#bd7162" opacity="0.19"/>
<rect x="8" y="444" width="4" height="4" fill="#acb9b4" opacity="0.31"/>
<rect x="908" y="840" width="3" height="3" fill="#9b7168" opacity="0.23"/>
<rect x="588" y="368" width="3" height="3" fill="#bd7162" opacity="0.16"/>
<rect x="904" y="484" width="3" height="3" fill="#acb9b4" opacity="0.30"/>
<rect x="652" y="800" width="2" height="2" fill="#acb9b4" opacity="0.17"/>
<rect x="312" y="168" width="3" height="3" fill="#d1baa2" opacity="0.23"/>
<rect x="1380" y="932" width="2" height="2" fill="#bd7162" opacity="0.38"/>
<rect x="412" y="896" width="2" height="2" fill="#bd7162" opacity="0.22"/>
<rect x="8" y="280" width="2" height="2" fill="#d1baa2" opacity="0.26"/>
<rect x="1372" y="560" width="2" height="2" fill="#acb9b4" opacity="0.23"/>
<rect x="8" y="60" width="2" height="2" fill="#e8d8c7" opacity="0.39"/>
<rect x="1036" y="696" width="2" height="2" fill="#d1baa2" opacity="0.33"/>
<rect x="464" y="512" width="2" height="2" fill="#bd7162" opacity="0.16"/>
<rect x="500" y="204" width="3" height="3" fill="#e8d8c7" opacity="0.38"/>
<rect x="1148" y="588" width="4" height="4" fill="#9b7168" opacity="0.22"/>
<rect x="528" y="928" width="2" height="2" fill="#bd7162" opacity="0.22"/>
<rect x="552" y="512" width="2" height="2" fill="#d1baa2" opacity="0.43"/>
<rect x="816" y="320" width="2" height="2" fill="#acb9b4" opacity="0.32"/>
<rect x="1248" y="668" width="2" height="2" fill="#d1baa2" opacity="0.22"/>
<rect x="1320" y="328" width="2" height="2" fill="#bd7162" opacity="0.38"/>
<rect x="292" y="548" width="2" height="2" fill="#acb9b4" opacity="0.30"/>
<rect x="12" y="80" width="2" height="2" fill="#e8d8c7" opacity="0.17"/>
<rect x="992" y="604" width="2" height="2" fill="#9b7168" opacity="0.39"/>
<rect x="1400" y="896" width="2" height="2" fill="#9b7168" opacity="0.35"/>
<rect x="596" y="836" width="2" height="2" fill="#bd7162" opacity="0.39"/>
<rect x="1136" y="804" width="2" height="2" fill="#d1baa2" opacity="0.28"/>
<rect x="556" y="292" width="3" height="3" fill="#bd7162" opacity="0.27"/>
<rect x="1092" y="276" width="2" height="2" fill="#9b7168" opacity="0.24"/>
<rect x="1416" y="208" width="2" height="2" fill="#bd7162" opacity="0.45"/>
<rect x="336" y="92" width="2" height="2" fill="#d1baa2" opacity="0.27"/>
<rect x="512" y="288" width="2" height="2" fill="#e8d8c7" opacity="0.43"/>
<rect x="592" y="928" width="3" height="3" fill="#9b7168" opacity="0.44"/>
<rect x="1248" y="876" width="2" height="2" fill="#9b7168" opacity="0.17"/>
<rect x="144" y="284" width="2" height="2" fill="#bd7162" opacity="0.42"/>
<rect x="36" y="584" width="2" height="2" fill="#9b7168" opacity="0.27"/>
<rect x="1068" y="808" width="2" height="2" fill="#bd7162" opacity="0.46"/>
<rect x="452" y="284" width="2" height="2" fill="#9b7168" opacity="0.29"/>
<rect x="1144" y="352" width="2" height="2" fill="#bd7162" opacity="0.36"/>
<rect x="1232" y="200" width="2" height="2" fill="#e8d8c7" opacity="0.36"/>
<rect x="820" y="376" width="2" height="2" fill="#e8d8c7" opacity="0.33"/>
<rect x="1156" y="172" width="2" height="2" fill="#bd7162" opacity="0.21"/>
<rect x="256" y="852" width="3" height="3" fill="#acb9b4" opacity="0.34"/>
<rect x="8" y="852" width="2" height="2" fill="#e8d8c7" opacity="0.42"/>
<rect x="828" y="860" width="2" height="2" fill="#e8d8c7" opacity="0.24"/>
<rect x="1104" y="356" width="2" height="2" fill="#acb9b4" opacity="0.39"/>
<rect x="1232" y="44" width="2" height="2" fill="#d1baa2" opacity="0.47"/>
<rect x="1076" y="588" width="3" height="3" fill="#9b7168" opacity="0.27"/>
<rect x="1192" y="400" width="2" height="2" fill="#acb9b4" opacity="0.34"/>
<rect x="680" y="200" width="2" height="2" fill="#9b7168" opacity="0.25"/>
<rect x="1372" y="352" width="2" height="2" fill="#9b7168" opacity="0.42"/>
<rect x="216" y="292" width="2" height="2" fill="#9b7168" opacity="0.40"/>
<rect x="380" y="372" width="2" height="2" fill="#e8d8c7" opacity="0.29"/>
<rect x="228" y="336" width="2" height="2" fill="#bd7162" opacity="0.14"/>
<rect x="860" y="512" width="2" height="2" fill="#acb9b4" opacity="0.19"/>
<rect x="1308" y="288" width="2" height="2" fill="#9b7168" opacity="0.32"/>
<rect x="1208" y="708" width="2" height="2" fill="#acb9b4" opacity="0.41"/>
<rect x="1236" y="288" width="2" height="2" fill="#d1baa2" opacity="0.36"/>
<rect x="1000" y="220" width="3" height="3" fill="#d1baa2" opacity="0.37"/>
<rect x="836" y="228" width="2" height="2" fill="#d1baa2" opacity="0.47"/>
<rect x="396" y="552" width="3" height="3" fill="#bd7162" opacity="0.41"/>
<rect x="236" y="184" width="2" height="2" fill="#d1baa2" opacity="0.45"/>
<rect x="380" y="544" width="3" height="3" fill="#acb9b4" opacity="0.27"/>
<rect x="1008" y="64" width="2" height="2" fill="#acb9b4" opacity="0.17"/>
<rect x="492" y="60" width="4" height="4" fill="#acb9b4" opacity="0.23"/>
<rect x="312" y="288" width="2" height="2" fill="#d1baa2" opacity="0.38"/>
<rect x="420" y="408" width="3" height="3" fill="#bd7162" opacity="0.27"/>
<rect x="1300" y="20" width="2" height="2" fill="#e8d8c7" opacity="0.29"/>
<rect x="28" y="720" width="4" height="4" fill="#9b7168" opacity="0.21"/>
<rect x="888" y="696" width="2" height="2" fill="#bd7162" opacity="0.42"/>
<rect x="1228" y="552" width="2" height="2" fill="#e8d8c7" opacity="0.46"/>
<rect x="296" y="332" width="2" height="2" fill="#acb9b4" opacity="0.32"/>
<rect x="340" y="52" width="2" height="2" fill="#e8d8c7" opacity="0.41"/>
<rect x="416" y="648" width="3" height="3" fill="#e8d8c7" opacity="0.27"/>
<rect x="28" y="100" width="2" height="2" fill="#acb9b4" opacity="0.38"/>
<rect x="988" y="476" width="2" height="2" fill="#d1baa2" opacity="0.18"/>
<rect x="1016" y="204" width="3" height="3" fill="#e8d8c7" opacity="0.16"/>
<rect x="248" y="240" width="2" height="2" fill="#9b7168" opacity="0.39"/>
<rect x="776" y="36" width="2" height="2" fill="#bd7162" opacity="0.34"/>
<rect x="204" y="252" width="2" height="2" fill="#bd7162" opacity="0.13"/>
<rect x="24" y="184" width="3" height="3" fill="#d1baa2" opacity="0.37"/>
<rect x="8" y="192" width="4" height="4" fill="#bd7162" opacity="0.24"/>
<rect x="216" y="100" width="2" height="2" fill="#acb9b4" opacity="0.42"/>
<rect x="1168" y="276" width="2" height="2" fill="#bd7162" opacity="0.33"/>
<rect x="1436" y="8" width="3" height="3" fill="#d1baa2" opacity="0.23"/>
<rect x="1148" y="516" width="2" height="2" fill="#bd7162" opacity="0.40"/>
<rect x="696" y="460" width="2" height="2" fill="#acb9b4" opacity="0.39"/>
<rect x="700" y="224" width="4" height="4" fill="#bd7162" opacity="0.31"/>
<rect x="884" y="364" width="2" height="2" fill="#e8d8c7" opacity="0.22"/>
<rect x="1124" y="528" width="2" height="2" fill="#bd7162" opacity="0.19"/>
<rect x="224" y="560" width="2" height="2" fill="#bd7162" opacity="0.32"/>
<rect x="1320" y="296" width="2" height="2" fill="#d1baa2" opacity="0.33"/>
<rect x="788" y="592" width="4" height="4" fill="#e8d8c7" opacity="0.19"/>
<rect x="316" y="764" width="3" height="3" fill="#9b7168" opacity="0.41"/>
<rect x="592" y="444" width="2" height="2" fill="#e8d8c7" opacity="0.38"/>
<rect x="920" y="96" width="2" height="2" fill="#acb9b4" opacity="0.32"/>
<rect x="1488" y="264" width="3" height="3" fill="#d1baa2" opacity="0.15"/>
<rect x="1100" y="608" width="2" height="2" fill="#e8d8c7" opacity="0.16"/>
<rect x="1452" y="852" width="2" height="2" fill="#9b7168" opacity="0.43"/>
<rect x="356" y="184" width="3" height="3" fill="#bd7162" opacity="0.41"/>
<rect x="1116" y="128" width="2" height="2" fill="#bd7162" opacity="0.34"/>
<rect x="652" y="300" width="2" height="2" fill="#bd7162" opacity="0.13"/>
<rect x="332" y="564" width="3" height="3" fill="#e8d8c7" opacity="0.28"/>
<rect x="1432" y="708" width="2" height="2" fill="#bd7162" opacity="0.32"/>
<rect x="1332" y="120" width="2" height="2" fill="#e8d8c7" opacity="0.43"/>
<rect x="92" y="616" width="2" height="2" fill="#bd7162" opacity="0.23"/>
<rect x="124" y="788" width="2" height="2" fill="#d1baa2" opacity="0.32"/>
<rect x="1128" y="304" width="2" height="2" fill="#bd7162" opacity="0.25"/>
<rect x="1276" y="112" width="3" height="3" fill="#bd7162" opacity="0.38"/>
<rect x="884" y="688" width="2" height="2" fill="#9b7168" opacity="0.20"/>
<rect x="660" y="632" width="2" height="2" fill="#acb9b4" opacity="0.16"/>
<rect x="184" y="840" width="2" height="2" fill="#bd7162" opacity="0.37"/>
<rect x="1052" y="336" width="2" height="2" fill="#acb9b4" opacity="0.45"/>
<rect x="1384" y="864" width="3" height="3" fill="#d1baa2" opacity="0.35"/>
<rect x="472" y="48" width="2" height="2" fill="#acb9b4" opacity="0.16"/>
<rect x="1208" y="672" width="2" height="2" fill="#d1baa2" opacity="0.21"/>
<rect x="648" y="636" width="2" height="2" fill="#d1baa2" opacity="0.38"/>
<rect x="944" y="260" width="4" height="4" fill="#bd7162" opacity="0.33"/>
<rect x="1168" y="388" width="3" height="3" fill="#d1baa2" opacity="0.29"/>
<rect x="1452" y="356" width="2" height="2" fill="#e8d8c7" opacity="0.43"/>
<rect x="1252" y="140" width="2" height="2" fill="#d1baa2" opacity="0.15"/>
<rect x="1252" y="280" width="2" height="2" fill="#d1baa2" opacity="0.21"/>
<rect x="556" y="688" width="2" height="2" fill="#bd7162" opacity="0.17"/>
<rect x="980" y="676" width="4" height="4" fill="#e8d8c7" opacity="0.36"/>
<rect x="1112" y="432" width="2" height="2" fill="#9b7168" opacity="0.35"/>
<rect x="824" y="152" width="3" height="3" fill="#e8d8c7" opacity="0.46"/>
<rect x="916" y="724" width="4" height="4" fill="#bd7162" opacity="0.25"/>
<rect x="124" y="520" width="3" height="3" fill="#9b7168" opacity="0.45"/>
<rect x="36" y="184" width="2" height="2" fill="#acb9b4" opacity="0.45"/>
<rect x="192" y="164" width="2" height="2" fill="#d1baa2" opacity="0.29"/>
<rect x="1424" y="320" width="2" height="2" fill="#9b7168" opacity="0.18"/>
<rect x="624" y="948" width="2" height="2" fill="#acb9b4" opacity="0.46"/>
<rect x="1272" y="456" width="2" height="2" fill="#acb9b4" opacity="0.29"/>
<path d="M68 44v3 M68 50v3 M64 48h3 M70 48h3" stroke="#c77764" stroke-width="1.4" opacity="0.50"/>
<rect x="68" y="48" width="2" height="2" fill="#c77764" opacity="0.62"/>
<path d="M1400 284v3 M1400 290v3 M1396 288h3 M1402 288h3" stroke="#e2cdb6" stroke-width="1.4" opacity="0.47"/>
<rect x="1400" y="288" width="2" height="2" fill="#e2cdb6" opacity="0.59"/>
<path d="M544 252v3 M544 258v3 M540 256h3 M546 256h3" stroke="#e2cdb6" stroke-width="1.4" opacity="0.52"/>
<rect x="544" y="256" width="2" height="2" fill="#e2cdb6" opacity="0.64"/>
<path d="M180 824v3 M180 830v3 M176 828h3 M182 828h3" stroke="#e2cdb6" stroke-width="1.4" opacity="0.52"/>
<rect x="180" y="828" width="2" height="2" fill="#e2cdb6" opacity="0.64"/>
<path d="M564 784v3 M564 790v3 M560 788h3 M566 788h3" stroke="#e2cdb6" stroke-width="1.4" opacity="0.44"/>
<rect x="564" y="788" width="2" height="2" fill="#e2cdb6" opacity="0.56"/>
<path d="M884 96v3 M884 102v3 M880 100h3 M886 100h3" stroke="#e2cdb6" stroke-width="1.4" opacity="0.36"/>
<rect x="884" y="100" width="2" height="2" fill="#e2cdb6" opacity="0.48"/>
<path d="M360 452v3 M360 458v3 M356 456h3 M362 456h3" stroke="#c77764" stroke-width="1.4" opacity="0.34"/>
<rect x="360" y="456" width="2" height="2" fill="#c77764" opacity="0.46"/>
<path d="M44 638v5 M44 646v5 M38 644h5 M46 644h5" stroke="#e2cdb6" stroke-width="1.4" opacity="0.32"/>
<rect x="44" y="644" width="2" height="2" fill="#e2cdb6" opacity="0.44"/>
<path d="M888 808v3 M888 814v3 M884 812h3 M890 812h3" stroke="#e2cdb6" stroke-width="1.4" opacity="0.39"/>
<rect x="888" y="812" width="2" height="2" fill="#e2cdb6" opacity="0.51"/>
<path d="M344 332v3 M344 338v3 M340 336h3 M346 336h3" stroke="#c77764" stroke-width="1.4" opacity="0.26"/>
<rect x="344" y="336" width="2" height="2" fill="#c77764" opacity="0.38"/>
<path d="M604 912v3 M604 918v3 M600 916h3 M606 916h3" stroke="#e2cdb6" stroke-width="1.4" opacity="0.47"/>
<rect x="604" y="916" width="2" height="2" fill="#e2cdb6" opacity="0.59"/>
<path d="M128 490v5 M128 498v5 M122 496h5 M130 496h5" stroke="#e2cdb6" stroke-width="1.4" opacity="0.53"/>
<rect x="128" y="496" width="2" height="2" fill="#e2cdb6" opacity="0.65"/>
<path d="M976 258v5 M976 266v5 M970 264h5 M978 264h5" stroke="#e2cdb6" stroke-width="1.4" opacity="0.29"/>
<rect x="976" y="264" width="2" height="2" fill="#e2cdb6" opacity="0.41"/>
<path d="M1240 596v3 M1240 602v3 M1236 600h3 M1242 600h3" stroke="#e2cdb6" stroke-width="1.4" opacity="0.28"/>
<rect x="1240" y="600" width="2" height="2" fill="#e2cdb6" opacity="0.40"/>
<path d="M792 752v3 M792 758v3 M788 756h3 M794 756h3" stroke="#e2cdb6" stroke-width="1.4" opacity="0.48"/>
<rect x="792" y="756" width="2" height="2" fill="#e2cdb6" opacity="0.60"/>
<path d="M96 360v3 M96 366v3 M92 364h3 M98 364h3" stroke="#c77764" stroke-width="1.4" opacity="0.46"/>
<rect x="96" y="364" width="2" height="2" fill="#c77764" opacity="0.58"/>
<path d="M60 272v3 M60 278v3 M56 276h3 M62 276h3" stroke="#e2cdb6" stroke-width="1.4" opacity="0.38"/>
<rect x="60" y="276" width="2" height="2" fill="#e2cdb6" opacity="0.50"/>
<path d="M892 464v3 M892 470v3 M888 468h3 M894 468h3" stroke="#e2cdb6" stroke-width="1.4" opacity="0.41"/>
<rect x="892" y="468" width="2" height="2" fill="#e2cdb6" opacity="0.53"/>
<path d="M416 828v3 M416 834v3 M412 832h3 M418 832h3" stroke="#c77764" stroke-width="1.4" opacity="0.25"/>
<rect x="416" y="832" width="2" height="2" fill="#c77764" opacity="0.37"/>
<path d="M1148 476v3 M1148 482v3 M1144 480h3 M1150 480h3" stroke="#e2cdb6" stroke-width="1.4" opacity="0.40"/>
<rect x="1148" y="480" width="2" height="2" fill="#e2cdb6" opacity="0.52"/>
<path d="M804 832v3 M804 838v3 M800 836h3 M806 836h3" stroke="#c77764" stroke-width="1.4" opacity="0.51"/>
<rect x="804" y="836" width="2" height="2" fill="#c77764" opacity="0.63"/>
<path d="M1232 442v5 M1232 450v5 M1226 448h5 M1234 448h5" stroke="#e2cdb6" stroke-width="1.4" opacity="0.33"/>
<rect x="1232" y="448" width="2" height="2" fill="#e2cdb6" opacity="0.45"/>
<path d="M548 900v3 M548 906v3 M544 904h3 M550 904h3" stroke="#e2cdb6" stroke-width="1.4" opacity="0.29"/>
<rect x="548" y="904" width="2" height="2" fill="#e2cdb6" opacity="0.41"/>
<path d="M1136 734v5 M1136 742v5 M1130 740h5 M1138 740h5" stroke="#c77764" stroke-width="1.4" opacity="0.44"/>
<rect x="1136" y="740" width="2" height="2" fill="#c77764" opacity="0.56"/>
<path d="M820 352v3 M820 358v3 M816 356h3 M822 356h3" stroke="#e2cdb6" stroke-width="1.4" opacity="0.46"/>
<rect x="820" y="356" width="2" height="2" fill="#e2cdb6" opacity="0.58"/>
</svg>
